<svg width="266" height="40" viewBox="0 0 266 40" fill="none" xmlns="http://www.w3.org/2000/svg">
<path d="M32.95 4.85C31.3 3.2 29.25 2 26.75 1.2C24.25 0.4 21.3 0 17.85 0H0V39.85H17.85C21.25 39.85 24.25 39.45 26.75 38.65C29.25 37.85 31.3 36.65 32.95 35C34.6 33.35 35.8 31.3 36.6 28.8C37.4 26.3 37.8 23.35 37.8 19.9C37.8 16.45 37.4 13.5 36.6 11C35.8 8.5 34.6 6.45 32.95 4.85ZM26.9 25.45C26.5 26.95 25.85 28.15 24.95 29.05C24.05 29.95 22.85 30.6 21.35 31C19.85 31.4 18.05 31.6 15.85 31.6H9.85V8.3H15.85C18.05 8.3 19.85 8.5 21.35 8.9C22.85 9.3 24.05 9.95 24.95 10.85C25.85 11.75 26.5 12.95 26.9 14.45C27.3 15.95 27.5 17.75 27.5 19.95C27.5 22.15 27.3 23.95 26.9 25.45Z" fill="white"/>
<path d="M68.95 13.5C67.95 12.5 66.7 11.75 65.15 11.3C63.6 10.8 61.75 10.6 59.65 10.6H43.8V17.8H59.15C60.25 17.8 61 18.05 61.5 18.5C61.95 18.95 62.2 19.75 62.2 20.8V21.15H51.1501C48.1001 21.15 45.8 21.95 44.2001 23.55C42.6001 25.15 41.8 27.5 41.8 30.5C41.8 33.5 42.6001 35.8 44.2001 37.45C45.8 39.1 48.1501 39.85 51.1501 39.85H71.9V22.8C71.9 20.65 71.65 18.85 71.2 17.3C70.7 15.75 69.95 14.5 68.95 13.5ZM62.3 32.75H53.9C53.2 32.75 52.6 32.55 52.2 32.15C51.8 31.75 51.6 31.2 51.6 30.5C51.6 29.75 51.8 29.2 52.2 28.8C52.6 28.4 53.1501 28.2 53.9 28.2H62.3V32.75Z" fill="white"/>
<path d="M90 32.05C89.6 31.65 89.4 31 89.4 30V17.8H98.4V10.6H89.4V2.75H79.65V10.55H75.6V17.75H79.65V30.5C79.65 32.2 79.8 33.65 80.15 34.85C80.5 36.05 81 37 81.75 37.75C82.5 38.5 83.45 39.05 84.65 39.35C85.85 39.7 87.3 39.85 89 39.85H98.5V32.65H92.05C91.05 32.65 90.4 32.45 90 32.05Z" fill="white"/>
<path d="M129 13.5C128 12.5 126.75 11.75 125.2 11.3C123.65 10.8 121.8 10.6 119.7 10.6H103.85V17.8H119.2C120.3 17.8 121.05 18.05 121.55 18.5C122 18.95 122.25 19.75 122.25 20.8V21.15H111.2C108.15 21.15 105.85 21.95 104.25 23.55C102.65 25.15 101.85 27.5 101.85 30.5C101.85 33.5 102.65 35.8 104.25 37.45C105.85 39.1 108.2 39.85 111.2 39.85H131.95V22.8C131.95 20.65 131.7 18.85 131.25 17.3C130.75 15.75 130 14.5 129 13.5ZM122.3 32.75H113.9C113.2 32.75 112.6 32.55 112.2 32.15C111.8 31.75 111.6 31.2 111.6 30.5C111.6 29.75 111.8 29.2 112.2 28.8C112.6 28.4 113.15 28.2 113.9 28.2H122.3V32.75Z" fill="white"/>
<path d="M157.75 15.7H150.3C149.1 15.7 148.15 15.4 147.55 14.75C146.9 14.1 146.6 13.2 146.6 12C146.6 10.8 146.9 9.9 147.55 9.25C148.2 8.6 149.1 8.3 150.3 8.3H168.15V0H148.15C144.15 0 141.15 1 139.15 2.95C137.15 4.9 136.2 7.9 136.2 11.95C136.2 16 137.2 19 139.15 21C141.1 23 144.1 24 148.15 24H155.75C158.25 24 159.55 25.25 159.55 27.8C159.55 30.35 158.3 31.6 155.75 31.6H137.3V39.9H157.7C161.7 39.9 164.7 38.9 166.75 36.85C168.8 34.8 169.85 31.8 169.85 27.8C169.85 23.8 168.8 20.8 166.75 18.8C164.7 16.8 161.7 15.7 157.75 15.7Z" fill="white"/>
<path d="M187.5 32.05C187.1 31.65 186.9 31 186.9 30V17.8H195.9V10.6H186.9V2.75H177.15V10.55H173.1V17.75H177.15V30.5C177.15 32.2 177.3 33.65 177.65 34.85C178 36.05 178.5 37 179.25 37.75C180 38.5 180.95 39.05 182.15 39.35C183.35 39.7 184.8 39.85 186.5 39.85H196V32.65H189.55C188.6 32.65 187.9 32.45 187.5 32.05Z" fill="white"/>
<path d="M226.5 13.5C225.5 12.5 224.25 11.75 222.7 11.3C221.15 10.8 219.3 10.6 217.2 10.6H201.35V17.8H216.7C217.8 17.8 218.55 18.05 219.05 18.5C219.5 18.95 219.75 19.75 219.75 20.8V21.15H208.7C205.65 21.15 203.35 21.95 201.75 23.55C200.15 25.15 199.35 27.5 199.35 30.5C199.35 33.5 200.15 35.8 201.75 37.45C203.35 39.1 205.7 39.85 208.7 39.85H229.45V22.8C229.45 20.65 229.2 18.85 228.75 17.3C228.25 15.75 227.5 14.5 226.5 13.5ZM219.8 32.75H211.4C210.7 32.75 210.1 32.55 209.7 32.15C209.3 31.75 209.1 31.2 209.1 30.5C209.1 29.75 209.3 29.2 209.7 28.8C210.1 28.4 210.65 28.2 211.4 28.2H219.8V32.75Z" fill="white"/>
<path d="M254.1 25.1L264.9 10.6H254.5L248.55 19.05L242.6 10.6H231.8L242.6 25.1L231.2 39.85H242.1L248.25 31.1L254.35 39.85H265.5L254.1 25.1Z" fill="white"/>
</svg>
